<?xml version="1.0" standalone="no"?>
<!DOCTYPE svg PUBLIC "-//W3C//DTD SVG 1.1//EN" "http://www.w3.org/Graphics/SVG/1.1/DTD/svg11.dtd" >
<svg>
<metadata>
Created by FontForge 20110222 at Thu Jan 22 12:04:28 2015
 By Christoph Haag,,,
Copyright (c) 2013 by BSozoo. All rights reserved.Copyright (c) 2013 by BSozoo. All rights reserved. SIL OPEN FONT LICENSE 
</metadata>
<defs>
<font id="LilGrotesk-Bold" horiz-adv-x="600" >
  <font-face 
    font-family="LilGrotesk"
    font-weight="700"
    font-stretch="normal"
    units-per-em="1000"
    panose-1="0 0 5 0 0 0 0 0 0 0"
    ascent="800"
    descent="-200"
    x-height="506"
    cap-height="700"
    bbox="-97 -301 1060 939"
    underline-thickness="50"
    underline-position="-50"
    unicode-range="U+0020-FB02"
  />
<missing-glyph horiz-adv-x="500" 
d="M500 700v-700h-500v700h500zM80 650l170 -255l170 255h-340zM220 350l-170 255v-510zM450 605l-170 -255l170 -255v510zM250 305l-170 -255h340z" />
    <glyph glyph-name=".notdef" horiz-adv-x="500" 
d="M500 700v-700h-500v700h500zM80 650l170 -255l170 255h-340zM220 350l-170 255v-510zM450 605l-170 -255l170 -255v510zM250 305l-170 -255h340z" />
    <glyph glyph-name="space" unicode=" " horiz-adv-x="290" 
 />
    <glyph glyph-name="lslash" unicode="&#x142;" horiz-adv-x="355" 
d="M112 0v295l-47 -22l-46 96l93 43v288h138v-224l54 25l46 -96l-100 -46v-359h-138z" />
    <glyph glyph-name="Scaron" unicode="&#x160;" horiz-adv-x="521" 
d="M72 910l171 -59l171 59l26 -85l-197 -99l-197 99zM470 595l-98 -90c-32 37 -57 68 -119 68c-36 0 -63 -24 -63 -60c0 -34 25 -49 91 -76c98 -40 211 -84 211 -233c1 -139 -125 -206 -245 -206c-135 0 -236 98 -241 130l104 85c27 -42 67 -82 137 -82c66 0 103 25 103 73
c0 60 -44 78 -123 111c-72 29 -180 78 -180 198c0 112 98 192 206 192c112 0 175 -52 217 -110z" />
    <glyph glyph-name="scaron" unicode="&#x161;" horiz-adv-x="431" 
d="M49 719l171 -59l171 59l26 -86l-197 -99l-197 99zM373 428l-94 -85c-21 29 -42 47 -70 49c-20 0 -30 -12 -30 -24c0 -14 6 -20 59 -38c36 -13 166 -41 166 -173c0 -113 -102 -161 -189 -161c-105 0 -163 57 -202 100l95 89c33 -45 59 -66 107 -66c37 0 62 15 62 38
c0 26 -31 36 -65 46c-71 26 -165 52 -170 151c-4 88 77 159 174 154c65 -4 117 -35 157 -80z" />
    <glyph glyph-name="Yacute" unicode="&#xdd;" horiz-adv-x="738" 
d="M492 810l-205 -80l-26 85l197 109zM553 700h176l-289 -372v-328h-142v328l-289 372h176l184 -237z" />
    <glyph glyph-name="yacute" unicode="&#xfd;" horiz-adv-x="653" 
d="M450 610l-205 -80l-26 85l198 109zM252 86l-243 420h157l164 -287l162 287h155l-398 -692h-156z" />
    <glyph glyph-name="Zcaron" unicode="&#x17d;" horiz-adv-x="696" 
d="M175 924l171 -59l171 59l26 -86l-197 -99l-197 99zM643 0h-637l412 568h-321v132h588l-411 -568h369v-132z" />
    <glyph glyph-name="zcaron" unicode="&#x17e;" horiz-adv-x="539" 
d="M112 719l171 -59l171 59l26 -86l-197 -99l-197 99zM488 127v-127h-435v93l233 280h-229v133h432v-94l-9 -10l-227 -275h235z" />
    <glyph glyph-name="Lslash" unicode="&#x141;" horiz-adv-x="486" 
d="M114 0v291l-102 -46v146l102 45v264h143v-201l127 56l-2 -146l-125 -56v-221h247v-132h-390z" />
    <glyph glyph-name="quotesingle" unicode="'" horiz-adv-x="202" 
d="M142 767l-15 -218h-101l-15 218h131z" />
    <glyph glyph-name="comma" unicode="," horiz-adv-x="265" 
d="M86 116h127v-133l-75 -148l-102 46l58 131z" />
    <glyph glyph-name="hyphen" unicode="-" horiz-adv-x="499" 
d="M68 350h364v-130h-364v130z" />
    <glyph glyph-name="period" unicode="." horiz-adv-x="379" 
d="M187 -31c-54 0 -97 42 -97 94c0 51 43 93 97 93c53 0 96 -42 96 -93c0 -52 -43 -94 -96 -94z" />
    <glyph glyph-name="A" unicode="A" horiz-adv-x="703" 
d="M169 0h-152l274 700h129l274 -700h-152l-78 199h-217zM299 331h114l-57 146z" />
    <glyph glyph-name="B" unicode="B" horiz-adv-x="592" 
d="M71 700h245c103 0 186 -83 186 -184c0 -33 -9 -65 -25 -92c62 -43 103 -113 103 -192c0 -127 -103 -232 -240 -232h-269v700zM214 465h103c22 0 42 21 42 51c0 31 -21 52 -43 52h-102v-103zM214 132h97c78 2 126 32 126 100c0 57 -43 100 -95 100h-128v-200z" />
    <glyph glyph-name="C" unicode="C" horiz-adv-x="695" 
d="M549 248l116 -76c-52 -98 -167 -174 -290 -174c-187 0 -337 159 -337 352c0 175 131 351 337 351c115 0 226 -67 279 -155l-111 -83c-45 71 -99 106 -168 106c-112 0 -194 -105 -194 -219c0 -124 91 -220 194 -220c73 0 130 40 174 118z" />
    <glyph glyph-name="D" unicode="D" horiz-adv-x="677" 
d="M102 700h162c250 0 359 -152 359 -350c0 -197 -117 -350 -354 -350h-167v700zM245 132h24c146 0 211 81 211 218c0 140 -60 218 -216 218h-19v-436z" />
    <glyph glyph-name="E" unicode="E" 
d="M70 0v700h484v-132h-341v-149h275v-132h-275v-155h342v-132h-485z" />
    <glyph glyph-name="F" unicode="F" horiz-adv-x="563" 
d="M468 420v-132h-257v-288h-143v701h467v-132h-324v-149h257z" />
    <glyph glyph-name="G" unicode="G" horiz-adv-x="700" 
d="M642 388v-238c-64 -99 -176 -152 -277 -152c-187 0 -337 159 -337 352s150 351 337 351c101 0 201 -52 255 -122l-100 -94c-46 57 -95 84 -155 84c-103 0 -194 -95 -194 -219s91 -220 194 -220c50 0 95 18 135 62v64h-169v132h311z" />
    <glyph glyph-name="H" unicode="H" horiz-adv-x="721" 
d="M503 0v287h-285v-287h-143v700h143v-281h285v281h143v-700h-143z" />
    <glyph glyph-name="I" unicode="I" horiz-adv-x="301" 
d="M79 0v700h143v-700h-143z" />
    <glyph glyph-name="J" unicode="J" horiz-adv-x="523" 
d="M445 701v-504c1 -109 -89 -199 -201 -199c-125 0 -222 111 -198 237h147c-25 -57 11 -105 51 -105c30 0 58 19 57 78v493h144z" />
    <glyph glyph-name="K" unicode="K" horiz-adv-x="670" 
d="M219 0h-143v702h143v-229l242 227h201l-299 -280l325 -420h-177l-250 325l-42 -39v-286z" />
    <glyph glyph-name="L" unicode="L" horiz-adv-x="505" 
d="M83 700h143v-568h247v-132h-390v700z" />
    <glyph glyph-name="M" unicode="M" horiz-adv-x="861" 
d="M778 700v-700h-143v380l-205 -384l-204 385v-381h-143v700h132l215 -405l216 405h132z" />
    <glyph glyph-name="N" unicode="N" horiz-adv-x="725" 
d="M218 437v-437h-143v700h132l299 -435v435h143v-700h-130z" />
    <glyph glyph-name="O" unicode="O" horiz-adv-x="798" 
d="M399 702c196 0 354 -157 354 -351c0 -221 -184 -351 -354 -351c-196 0 -354 158 -354 351c0 191 154 351 354 351zM399 570c-116 0 -211 -98 -211 -219c0 -122 96 -219 211 -219c102 0 211 82 211 219c0 123 -97 219 -211 219z" />
    <glyph glyph-name="P" unicode="P" horiz-adv-x="585" 
d="M75 706h269c57 0 116 -26 151 -61c37 -37 62 -94 62 -148c0 -114 -95 -209 -213 -209h-126v-288h-143v706zM218 420h126c38 0 70 32 70 77c0 23 -9 43 -20 55c-18 17 -30 22 -50 22h-126v-154z" />
    <glyph glyph-name="Q" unicode="Q" horiz-adv-x="805" 
d="M609 0l-43 40c-53 -28 -111 -42 -168 -42c-196 0 -354 158 -354 351c0 190 154 351 354 351c196 0 354 -158 354 -351c0 -90 -31 -165 -78 -222l138 -127h-203zM496 292l75 -70c23 34 38 77 38 127c0 122 -97 219 -211 219c-116 0 -211 -98 -211 -219
c0 -122 96 -219 211 -219c20 0 41 3 61 9l-165 153h202z" />
    <glyph glyph-name="R" unicode="R" horiz-adv-x="689" 
d="M303 324h-83v-324h-143v706h292c127 0 207 -87 207 -191c0 -77 -48 -145 -117 -175l213 -340h-166zM220 457h154c42 0 62 21 62 59c0 37 -30 58 -64 58h-152v-117z" />
    <glyph glyph-name="S" unicode="S" horiz-adv-x="521" 
d="M470 595l-98 -90c-32 37 -57 68 -119 68c-36 0 -63 -24 -63 -60c0 -34 25 -49 91 -76c98 -40 211 -84 211 -233c1 -139 -125 -206 -245 -206c-135 0 -236 98 -241 130l104 85c27 -42 67 -82 137 -82c66 0 103 25 103 73c0 60 -44 78 -123 111c-72 29 -180 78 -180 198
c0 112 98 192 206 192c112 0 175 -52 217 -110z" />
    <glyph glyph-name="T" unicode="T" horiz-adv-x="556" 
d="M350 0h-143v568h-194v132h530v-132h-193v-568z" />
    <glyph glyph-name="U" unicode="U" horiz-adv-x="671" 
d="M210 699v-425c0 -25 5 -145 126 -151h14c105 5 122 96 126 137v439h143v-420s10 -278 -266 -288h-20c-277 10 -266 288 -266 287v421h143z" />
    <glyph glyph-name="V" unicode="V" horiz-adv-x="685" 
d="M281 0l-271 700h152l181 -467l181 467h151l-271 -700h-123z" />
    <glyph glyph-name="W" unicode="W" horiz-adv-x="942" 
d="M931 700l-174 -700h-126l-160 452l-161 -452h-125l-174 700h147l103 -416l148 416h124l148 -416l103 416h147z" />
    <glyph glyph-name="X" unicode="X" horiz-adv-x="837" 
d="M185 0h-178l321 398l-246 302h179l159 -196l159 196h179l-248 -305l320 -395h-178l-235 289z" />
    <glyph glyph-name="Y" unicode="Y" horiz-adv-x="738" 
d="M553 700h176l-289 -372v-328h-142v328l-289 372h176l184 -237z" />
    <glyph glyph-name="Z" unicode="Z" horiz-adv-x="696" 
d="M643 0h-637l412 568h-321v132h588l-411 -568h369v-132z" />
    <glyph glyph-name="a" unicode="a" horiz-adv-x="506" 
d="M159 323l-93 84c37 52 99 102 196 102c109 0 199 -75 199 -190v-319h-137v36c-18 -21 -52 -41 -111 -41c-122 0 -176 87 -176 158c0 126 96 166 202 166c31 0 63 -5 85 -11v11c0 42 -23 73 -62 73c-45 0 -74 -27 -103 -69zM263 220c-62 0 -99 -16 -99 -59
c0 -20 16 -40 53 -40c64 0 103 37 107 91c-18 5 -42 8 -61 8z" />
    <glyph glyph-name="b" unicode="b" horiz-adv-x="587" 
d="M209 700v-217c23 16 54 26 95 26c144 0 258 -112 258 -256c0 -143 -109 -260 -252 -260c-41 0 -74 10 -101 27v-20h-137v700h137zM209 333v-170c20 -24 54 -42 101 -42c63 0 115 55 115 132s-57 129 -121 129c-52 0 -82 -22 -95 -49z" />
    <glyph glyph-name="c" unicode="c" horiz-adv-x="514" 
d="M413 191l102 -83c-40 -66 -129 -117 -219 -117c-146 0 -264 117 -264 262c0 138 113 262 264 262c84 0 168 -45 208 -102l-96 -91c-25 46 -68 66 -112 66c-69 0 -127 -62 -127 -135c0 -77 59 -136 127 -136c48 0 92 23 117 74z" />
    <glyph glyph-name="d" unicode="d" horiz-adv-x="580" 
d="M385 0v20c-27 -17 -60 -27 -101 -27c-143 0 -252 117 -252 260c0 144 114 256 258 256c41 0 72 -10 95 -26v217h137v-700h-137zM385 163v170c-13 27 -43 49 -95 49c-64 0 -121 -52 -121 -129s52 -132 115 -132c47 0 81 18 101 42z" />
    <glyph glyph-name="e" unicode="e" horiz-adv-x="555" 
d="M402 191l104 -84c-40 -67 -111 -118 -216 -118c-172 0 -255 134 -255 262s85 262 254 262c74 0 132 -30 170 -76c38 -47 58 -108 42 -218h-329c0 -72 49 -107 118 -107c59 0 99 35 112 79zM184 327h193c3 32 -36 75 -88 75c-56 0 -93 -33 -105 -75z" />
    <glyph glyph-name="f" unicode="f" horiz-adv-x="394" 
d="M355 380h-122v-380h-137v380h-81v127h81v35c0 60 24 169 152 169c28 0 83 -7 142 -53l-67 -107c-13 20 -30 40 -58 40c-16 0 -32 -12 -32 -49v-35h122v-127z" />
    <glyph glyph-name="g" unicode="g" horiz-adv-x="567" 
d="M533 379l-80 11c9 -23 15 -47 15 -73c0 -105 -88 -191 -196 -191c-29 0 -55 5 -79 16c-44 15 -69 -8 -71 -24c-3 -20 2 -50 88 -50c20 0 45 1 72 1c86 0 256 3 256 -161c0 -144 -103 -209 -289 -209c-137 0 -239 58 -228 176c6 70 58 98 68 103c-50 22 -78 73 -69 130
c7 47 44 84 92 99c-22 31 -35 69 -35 110c0 106 87 192 195 192c29 0 56 -6 81 -18l186 13zM272 382c-30 0 -58 -28 -58 -65s28 -65 58 -65c31 0 59 28 59 65s-28 65 -59 65zM251 -190c80 0 168 15 158 90c-4 35 -44 49 -90 49c-66 0 -114 2 -127 2c-11 0 -44 -35 -50 -66
c-8 -36 22 -75 109 -75z" />
    <glyph glyph-name="h" unicode="h" horiz-adv-x="561" 
d="M204 700v-219c28 19 61 30 100 30c130 0 217 -93 217 -214v-297h-137v297c0 55 -33 88 -85 88c-31 0 -72 -15 -95 -60v-325h-137v700h137z" />
    <glyph glyph-name="i" unicode="i" horiz-adv-x="264" 
d="M58 606c0 37 33 69 72 69s71 -32 71 -69c0 -36 -32 -69 -71 -69s-72 33 -72 69zM64 0v506h137v-506h-137z" />
    <glyph glyph-name="j" unicode="j" horiz-adv-x="244" 
d="M47 606c0 37 32 69 71 69s72 -32 72 -69c0 -36 -33 -69 -72 -69s-71 33 -71 69zM191 506v-484c0 -148 -131 -219 -254 -200v129c62 -17 117 6 117 71v484h137z" />
    <glyph glyph-name="k" unicode="k" horiz-adv-x="568" 
d="M208 0h-137v700h137v-299l134 105h207l-210 -167l212 -339h-158l-160 255l-25 -20v-235z" />
    <glyph glyph-name="l" unicode="l" horiz-adv-x="253" 
d="M189 700v-700h-137v700h137z" />
    <glyph glyph-name="m" unicode="m" horiz-adv-x="899" 
d="M215 505v-29c27 21 61 35 102 35c66 0 119 -25 156 -65c34 37 85 64 159 64c130 0 218 -92 218 -214v-296h-137v296c0 56 -33 89 -86 89c-39 0 -78 -22 -98 -68c1 -8 1 -16 1 -24v-293h-137v293c0 55 -28 92 -81 92c-42 0 -82 -30 -97 -77v-308h-137v505h137z" />
    <glyph glyph-name="n" unicode="n" horiz-adv-x="561" 
d="M194 505v-24c27 19 60 30 100 30c130 0 217 -93 217 -214v-297h-137v297c0 55 -33 88 -85 88c-37 0 -75 -20 -95 -61v-324h-137v505h137z" />
    <glyph glyph-name="o" unicode="o" horiz-adv-x="591" 
d="M555 251c0 -141 -115 -259 -260 -259s-260 117 -260 259c0 143 117 259 260 259c144 0 260 -117 260 -259zM418 251c0 74 -57 131 -123 131c-65 0 -123 -57 -123 -131s57 -131 123 -131s123 58 123 131z" />
    <glyph glyph-name="p" unicode="p" horiz-adv-x="596" 
d="M207 507v-26c21 18 57 30 96 30c143 0 257 -118 257 -262c0 -143 -108 -259 -252 -259c-40 0 -74 10 -101 27v-198h-138v688h138zM207 329v-153c14 -30 49 -59 101 -59c63 0 115 55 115 132s-57 135 -120 135c-53 0 -84 -26 -96 -55z" />
    <glyph glyph-name="q" unicode="q" 
d="M535 -181h-137v198c-27 -17 -61 -27 -101 -27c-144 0 -252 116 -252 259c0 144 114 262 257 262c38 0 75 -12 96 -30v27h137v-689zM398 176v153c-12 29 -43 55 -96 55c-63 0 -120 -58 -120 -135s52 -132 115 -132c52 0 87 29 101 59z" />
    <glyph glyph-name="r" unicode="r" horiz-adv-x="424" 
d="M213 506v-43c22 27 51 45 88 45c28 0 72 -6 118 -52l-67 -107c-13 20 -30 39 -59 40c-35 2 -74 -25 -80 -92v-297h-137v506h137z" />
    <glyph glyph-name="s" unicode="s" horiz-adv-x="431" 
d="M373 428l-94 -85c-21 29 -42 47 -70 49c-20 0 -30 -12 -30 -24c0 -14 6 -20 59 -38c36 -13 166 -41 166 -173c0 -113 -102 -161 -189 -161c-105 0 -163 57 -202 100l95 89c33 -45 59 -66 107 -66c37 0 62 15 62 38c0 26 -31 36 -65 46c-71 26 -165 52 -170 151
c-4 88 77 159 174 154c65 -4 117 -35 157 -80z" />
    <glyph glyph-name="t" unicode="t" horiz-adv-x="338" 
d="M289 126l46 -88c-14 -13 -51 -43 -128 -43c-115 0 -144 73 -144 130v269h-64v112h64v194h137v-194h129v-112h-129v-230c0 -29 1 -55 37 -55c24 0 39 6 52 17z" />
    <glyph glyph-name="u" unicode="u" horiz-adv-x="569" 
d="M368 0v22c-26 -17 -57 -27 -92 -27c-129 0 -213 91 -213 233v278h137v-278c0 -75 26 -107 79 -107c46 0 81 38 89 76v309h137v-506h-137z" />
    <glyph glyph-name="v" unicode="v" horiz-adv-x="469" 
d="M-15 506h148l101 -258l102 258h147l-209 -506h-79z" />
    <glyph glyph-name="w" unicode="w" horiz-adv-x="680" 
d="M9 506h143l60 -246l79 246h98l79 -246l60 246h143l-142 -506h-101l-88 250l-88 -250h-101z" />
    <glyph glyph-name="x" unicode="x" horiz-adv-x="609" 
d="M182 506l126 -155l125 155h174l-212 -258l211 -248h-174l-128 150l-127 -150h-175l215 253l-209 253h174z" />
    <glyph glyph-name="y" unicode="y" horiz-adv-x="653" 
d="M252 86l-243 420h157l164 -287l162 287h155l-398 -692h-156z" />
    <glyph glyph-name="z" unicode="z" horiz-adv-x="539" 
d="M488 127v-127h-435v93l233 280h-229v133h432v-94l-9 -10l-227 -275h235z" />
    <glyph glyph-name="Adieresis" unicode="&#xc4;" horiz-adv-x="703" 
d="M109 801c0 37 32 69 71 69s72 -32 72 -69c0 -36 -33 -69 -72 -69s-71 33 -71 69zM479 801c0 37 33 69 72 69s71 -32 71 -69c0 -36 -32 -69 -71 -69s-72 33 -72 69zM17 0l274 700h129l274 -700h-152l-78 199h-217l-78 -199h-152zM413 331l-57 146l-57 -146h114z" />
    <glyph glyph-name="Aring" unicode="&#xc5;" horiz-adv-x="703" 
d="M464 199h-217l-78 -199h-152l271 691c-40 23 -67 66 -67 115c0 73 60 133 135 133s135 -60 135 -133c0 -49 -27 -92 -67 -115l270 -691h-152zM356 857c-25 0 -47 -22 -47 -51s22 -50 47 -50s47 21 47 50s-22 51 -47 51zM299 331h114l-57 146z" />
    <glyph glyph-name="Ccedilla" unicode="&#xc7;" horiz-adv-x="695" 
d="M549 248l116 -76c-52 -98 -167 -174 -290 -174c-187 0 -337 159 -337 352c0 175 131 351 337 351c115 0 226 -67 279 -155l-111 -83c-45 71 -99 106 -168 106c-112 0 -194 -105 -194 -219c0 -124 91 -220 194 -220c73 0 130 40 174 118zM425 -67l-98 -145l-90 61l99 145z
" />
    <glyph glyph-name="Eacute" unicode="&#xc9;" 
d="M438 810l-205 -80l-26 85l197 109zM70 700h484v-132h-341v-149h275v-132h-275v-155h342v-132h-485v700z" />
    <glyph glyph-name="Ntilde" unicode="&#xd1;" horiz-adv-x="725" 
d="M413 893h91c30 -87 -32 -137 -86 -137c-63 0 -89 48 -118 38c-13 -5 -17 -28 -13 -44l-83 24c-10 46 13 113 82 113c57 0 103 -61 129 -42c14 11 4 34 -2 48zM218 0h-143v700h132l299 -435v435h143v-700h-130l-301 437v-437z" />
    <glyph glyph-name="Odieresis" unicode="&#xd6;" horiz-adv-x="798" 
d="M48 791c0 36 32 69 71 69s72 -33 72 -69s-33 -69 -72 -69s-71 33 -71 69zM600 791c0 36 33 69 71 69c39 0 72 -33 72 -69s-33 -69 -72 -69c-38 0 -71 33 -71 69zM399 702c196 0 354 -157 354 -351c0 -221 -184 -351 -354 -351c-196 0 -354 158 -354 351
c0 191 154 351 354 351zM399 570c-116 0 -211 -98 -211 -219c0 -122 96 -219 211 -219c102 0 211 82 211 219c0 123 -97 219 -211 219z" />
    <glyph glyph-name="Udieresis" unicode="&#xdc;" horiz-adv-x="671" 
d="M94 801c0 37 33 69 71 69c39 0 72 -32 72 -69c0 -36 -33 -69 -72 -69c-38 0 -71 33 -71 69zM464 801c0 37 33 69 72 69s71 -32 71 -69c0 -36 -32 -69 -71 -69s-72 33 -72 69zM210 699v-425c0 -25 5 -145 126 -151h14c105 5 122 96 126 137v439h143v-420
s10 -278 -266 -288h-20c-277 10 -266 288 -266 287v421h143z" />
    <glyph glyph-name="aacute" unicode="&#xe1;" horiz-adv-x="506" 
d="M375 618l-205 -80l-26 85l198 109zM159 323l-93 84c37 52 99 102 196 102c109 0 199 -75 199 -190v-319h-137v36c-18 -21 -52 -41 -111 -41c-122 0 -176 87 -176 158c0 126 96 166 202 166c31 0 63 -5 85 -11v11c0 42 -23 73 -62 73c-45 0 -74 -27 -103 -69zM263 220
c-62 0 -99 -16 -99 -59c0 -20 16 -40 53 -40c64 0 103 37 107 91c-18 5 -42 8 -61 8z" />
    <glyph glyph-name="agrave" unicode="&#xe0;" horiz-adv-x="506" 
d="M373 623l-26 -85l-206 80l34 114zM159 323l-93 84c37 52 99 102 196 102c109 0 199 -75 199 -190v-319h-137v36c-18 -21 -52 -41 -111 -41c-122 0 -176 87 -176 158c0 126 96 166 202 166c31 0 63 -5 85 -11v11c0 42 -23 73 -62 73c-45 0 -74 -27 -103 -69zM263 220
c-62 0 -99 -16 -99 -59c0 -20 16 -40 53 -40c64 0 103 37 107 91c-18 5 -42 8 -61 8z" />
    <glyph glyph-name="acircumflex" unicode="&#xe2;" horiz-adv-x="506" 
d="M252 612l-151 -59l-26 86l177 99l177 -99l-26 -86zM159 323l-93 84c37 52 99 102 196 102c109 0 199 -75 199 -190v-319h-137v36c-18 -21 -52 -41 -111 -41c-122 0 -176 87 -176 158c0 126 96 166 202 166c31 0 63 -5 85 -11v11c0 42 -23 73 -62 73
c-45 0 -74 -27 -103 -69zM263 220c-62 0 -99 -16 -99 -59c0 -20 16 -40 53 -40c64 0 103 37 107 91c-18 5 -42 8 -61 8z" />
    <glyph glyph-name="adieresis" unicode="&#xe4;" horiz-adv-x="506" 
d="M5 609c0 37 33 69 72 69s71 -32 71 -69c0 -36 -32 -69 -71 -69s-72 33 -72 69zM376 609c0 37 32 69 71 69s72 -32 72 -69c0 -36 -33 -69 -72 -69s-71 33 -71 69zM159 323l-93 84c37 52 99 102 196 102c109 0 199 -75 199 -190v-319h-137v36c-18 -21 -52 -41 -111 -41
c-122 0 -176 87 -176 158c0 126 96 166 202 166c31 0 63 -5 85 -11v11c0 42 -23 73 -62 73c-45 0 -74 -27 -103 -69zM263 220c-62 0 -99 -16 -99 -59c0 -20 16 -40 53 -40c64 0 103 37 107 91c-18 5 -42 8 -61 8z" />
    <glyph glyph-name="atilde" unicode="&#xe3;" horiz-adv-x="506" 
d="M303 702h92c29 -88 -33 -138 -87 -138c-63 0 -88 48 -118 38c-13 -5 -17 -28 -12 -44l-83 24c-11 46 12 113 82 113c56 0 102 -61 128 -42c14 11 4 34 -2 49zM159 323l-93 84c37 52 99 102 196 102c109 0 199 -75 199 -190v-319h-137v36c-18 -21 -52 -41 -111 -41
c-122 0 -176 87 -176 158c0 126 96 166 202 166c31 0 63 -5 85 -11v11c0 42 -23 73 -62 73c-45 0 -74 -27 -103 -69zM263 220c-62 0 -99 -16 -99 -59c0 -20 16 -40 53 -40c64 0 103 37 107 91c-18 5 -42 8 -61 8z" />
    <glyph glyph-name="aring" unicode="&#xe5;" horiz-adv-x="506" 
d="M159 323l-93 84c26 37 65 73 121 91c-42 22 -70 66 -70 116c0 73 60 133 135 133s135 -60 135 -133c0 -48 -25 -90 -64 -113c79 -23 138 -89 138 -182v-319h-137v36c-18 -21 -52 -41 -111 -41c-122 0 -176 87 -176 158c0 126 96 166 202 166c31 0 63 -5 85 -11v11
c0 42 -23 73 -62 73c-45 0 -74 -27 -103 -69zM252 665c-25 0 -47 -22 -47 -51c0 -28 22 -50 47 -50c26 0 48 22 48 50c0 29 -22 51 -48 51zM217 121c64 0 103 37 107 91c-18 5 -42 8 -61 8c-62 0 -99 -16 -99 -59c0 -20 16 -40 53 -40z" />
    <glyph glyph-name="ccedilla" unicode="&#xe7;" horiz-adv-x="514" 
d="M413 191l102 -83c-40 -66 -129 -117 -219 -117c-10 0 -19 1 -28 2l81 -55l-99 -145l-89 61l95 140c-127 19 -224 128 -224 259c0 138 113 262 264 262c84 0 168 -45 208 -102l-96 -91c-25 46 -68 66 -112 66c-69 0 -127 -62 -127 -135c0 -77 59 -136 127 -136
c48 0 92 23 117 74z" />
    <glyph glyph-name="eacute" unicode="&#xe9;" horiz-adv-x="555" 
d="M412 623l-205 -81l-26 86l198 109zM402 191l104 -84c-40 -67 -111 -118 -216 -118c-172 0 -255 134 -255 262s85 262 254 262c74 0 132 -30 170 -76c38 -47 58 -108 42 -218h-329c0 -72 49 -107 118 -107c59 0 99 35 112 79zM184 327h193c3 32 -36 75 -88 75
c-56 0 -93 -33 -105 -75z" />
    <glyph glyph-name="egrave" unicode="&#xe8;" horiz-adv-x="555" 
d="M410 628l-26 -86l-206 81l34 114zM402 191l104 -84c-40 -67 -111 -118 -216 -118c-172 0 -255 134 -255 262s85 262 254 262c74 0 132 -30 170 -76c38 -47 58 -108 42 -218h-329c0 -72 49 -107 118 -107c59 0 99 35 112 79zM184 327h193c3 32 -36 75 -88 75
c-56 0 -93 -33 -105 -75z" />
    <glyph glyph-name="ecircumflex" unicode="&#xea;" horiz-adv-x="555" 
d="M289 617l-151 -59l-26 85l177 100l177 -100l-26 -85zM402 191l104 -84c-40 -67 -111 -118 -216 -118c-172 0 -255 134 -255 262s85 262 254 262c74 0 132 -30 170 -76c38 -47 58 -108 42 -218h-329c0 -72 49 -107 118 -107c59 0 99 35 112 79zM184 327h193
c3 32 -36 75 -88 75c-56 0 -93 -33 -105 -75z" />
    <glyph glyph-name="edieresis" unicode="&#xeb;" horiz-adv-x="555" 
d="M42 614c0 36 33 69 72 69s71 -33 71 -69s-32 -69 -71 -69s-72 33 -72 69zM413 614c0 36 32 69 71 69s72 -33 72 -69s-33 -69 -72 -69s-71 33 -71 69zM402 191l104 -84c-40 -67 -111 -118 -216 -118c-172 0 -255 134 -255 262s85 262 254 262c74 0 132 -30 170 -76
c38 -47 58 -108 42 -218h-329c0 -72 49 -107 118 -107c59 0 99 35 112 79zM184 327h193c3 32 -36 75 -88 75c-56 0 -93 -33 -105 -75z" />
    <glyph glyph-name="iacute" unicode="&#xed;" horiz-adv-x="273" 
d="M253 615l-205 -81l-26 86l197 109zM64 0v506h137v-506h-137z" />
    <glyph glyph-name="igrave" unicode="&#xec;" horiz-adv-x="273" 
d="M250 620l-26 -86l-205 81l34 114zM64 0v506h137v-506h-137z" />
    <glyph glyph-name="icircumflex" unicode="&#xee;" horiz-adv-x="273" 
d="M130 609l-151 -59l-26 85l177 100l177 -100l-26 -85zM64 0v506h137v-506h-137z" />
    <glyph glyph-name="idieresis" unicode="&#xef;" horiz-adv-x="273" 
d="M-54 615c0 36 33 69 72 69s71 -33 71 -69c0 -37 -32 -69 -71 -69s-72 32 -72 69zM174 615c0 36 33 69 72 69s71 -33 71 -69c0 -37 -32 -69 -71 -69s-72 32 -72 69zM64 0v506h137v-506h-137z" />
    <glyph glyph-name="ntilde" unicode="&#xf1;" horiz-adv-x="561" 
d="M345 704h91c29 -88 -32 -138 -86 -138c-63 0 -89 49 -118 39c-13 -5 -17 -28 -13 -45l-83 25c-10 46 13 112 82 112c56 0 103 -60 129 -41c14 10 4 34 -2 48zM194 505v-24c27 19 60 30 100 30c130 0 217 -93 217 -214v-297h-137v297c0 55 -33 88 -85 88
c-37 0 -75 -20 -95 -61v-324h-137v505h137z" />
    <glyph glyph-name="oacute" unicode="&#xf3;" horiz-adv-x="591" 
d="M418 619l-205 -81l-26 86l197 109zM555 251c0 -141 -115 -259 -260 -259s-260 117 -260 259c0 143 117 259 260 259c144 0 260 -117 260 -259zM418 251c0 74 -57 131 -123 131c-65 0 -123 -57 -123 -131s57 -131 123 -131s123 58 123 131z" />
    <glyph glyph-name="ograve" unicode="&#xf2;" horiz-adv-x="591" 
d="M415 624l-26 -86l-205 81l34 114zM555 251c0 -141 -115 -259 -260 -259s-260 117 -260 259c0 143 117 259 260 259c144 0 260 -117 260 -259zM418 251c0 74 -57 131 -123 131c-65 0 -123 -57 -123 -131s57 -131 123 -131s123 58 123 131z" />
    <glyph glyph-name="ocircumflex" unicode="&#xf4;" horiz-adv-x="591" 
d="M295 613l-151 -59l-26 85l177 99l177 -99l-26 -85zM555 251c0 -141 -115 -259 -260 -259s-260 117 -260 259c0 143 117 259 260 259c144 0 260 -117 260 -259zM418 251c0 74 -57 131 -123 131c-65 0 -123 -57 -123 -131s57 -131 123 -131s123 58 123 131z" />
    <glyph glyph-name="odieresis" unicode="&#xf6;" horiz-adv-x="591" 
d="M48 610c0 36 32 69 71 69s72 -33 72 -69s-33 -69 -72 -69s-71 33 -71 69zM418 610c0 36 33 69 72 69s71 -33 71 -69s-32 -69 -71 -69s-72 33 -72 69zM555 251c0 -141 -115 -259 -260 -259s-260 117 -260 259c0 143 117 259 260 259c144 0 260 -117 260 -259zM418 251
c0 74 -57 131 -123 131c-65 0 -123 -57 -123 -131s57 -131 123 -131s123 58 123 131z" />
    <glyph glyph-name="otilde" unicode="&#xf5;" horiz-adv-x="591" 
d="M346 702h91c29 -87 -32 -138 -86 -138c-63 0 -89 49 -118 39c-13 -5 -17 -28 -13 -45l-83 25c-10 46 13 112 82 112c56 0 103 -60 129 -41c14 10 4 34 -2 48zM555 251c0 -141 -115 -259 -260 -259s-260 117 -260 259c0 143 117 259 260 259c144 0 260 -117 260 -259z
M418 251c0 74 -57 131 -123 131c-65 0 -123 -57 -123 -131s57 -131 123 -131s123 58 123 131z" />
    <glyph glyph-name="uacute" unicode="&#xfa;" horiz-adv-x="569" 
d="M406 616l-205 -80l-26 86l198 109zM368 0v22c-26 -17 -57 -27 -92 -27c-129 0 -213 91 -213 233v278h137v-278c0 -75 26 -107 79 -107c46 0 81 38 89 76v309h137v-506h-137z" />
    <glyph glyph-name="ugrave" unicode="&#xf9;" horiz-adv-x="569" 
d="M404 622l-26 -86l-206 80l34 115zM368 0v22c-26 -17 -57 -27 -92 -27c-129 0 -213 91 -213 233v278h137v-278c0 -75 26 -107 79 -107c46 0 81 38 89 76v309h137v-506h-137z" />
    <glyph glyph-name="ucircumflex" unicode="&#xfb;" horiz-adv-x="569" 
d="M283 611l-151 -59l-26 85l177 99l177 -99l-26 -85zM368 0v22c-26 -17 -57 -27 -92 -27c-129 0 -213 91 -213 233v278h137v-278c0 -75 26 -107 79 -107c46 0 81 38 89 76v309h137v-506h-137z" />
    <glyph glyph-name="udieresis" unicode="&#xfc;" horiz-adv-x="568" 
d="M31 608c0 36 33 69 72 69s71 -33 71 -69c0 -37 -32 -69 -71 -69s-72 32 -72 69zM402 608c0 36 32 69 71 69s72 -33 72 -69c0 -37 -33 -69 -72 -69s-71 32 -71 69zM363 0v22c-26 -17 -57 -27 -92 -27c-129 0 -213 91 -213 233v278h137v-278c0 -75 26 -107 79 -107
c46 0 81 38 89 76v309h137v-506h-137z" />
    <glyph glyph-name="Agrave" unicode="&#xc0;" horiz-adv-x="703" 
d="M476 815l-26 -85l-205 80l34 114zM17 0l274 700h129l274 -700h-152l-78 199h-217l-78 -199h-152zM413 331l-57 146l-57 -146h114z" />
    <glyph glyph-name="Atilde" unicode="&#xc3;" horiz-adv-x="703" 
d="M407 893h91c29 -87 -32 -137 -86 -137c-63 0 -89 48 -118 38c-13 -5 -17 -28 -13 -44l-83 24c-10 46 13 113 82 113c56 0 103 -61 129 -42c14 11 4 34 -2 48zM17 0l274 700h129l274 -700h-152l-78 199h-217l-78 -199h-152zM413 331l-57 146l-57 -146h114z" />
    <glyph glyph-name="Otilde" unicode="&#xd5;" horiz-adv-x="785" 
d="M450 896h91c29 -88 -32 -138 -87 -138c-62 0 -88 49 -117 38c-13 -4 -18 -27 -13 -44l-83 25c-10 46 13 112 82 112c56 0 103 -60 129 -41c14 10 4 34 -2 48zM399 702c196 0 354 -157 354 -351c0 -221 -184 -351 -354 -351c-196 0 -354 158 -354 351
c0 191 154 351 354 351zM399 570c-116 0 -211 -98 -211 -219c0 -122 96 -219 211 -219c102 0 211 82 211 219c0 123 -97 219 -211 219z" />
    <glyph glyph-name="ydieresis" unicode="&#xff;" horiz-adv-x="653" 
d="M80 601c0 37 33 69 72 69s71 -32 71 -69c0 -36 -32 -69 -71 -69s-72 33 -72 69zM451 601c0 37 32 69 71 69s72 -32 72 -69c0 -36 -33 -69 -72 -69s-71 33 -71 69zM9 506h157l164 -287l162 287h155l-398 -692h-156l159 272z" />
    <glyph glyph-name="Ydieresis" unicode="&#x178;" horiz-adv-x="738" 
d="M122 801c0 37 32 69 71 69s72 -32 72 -69c0 -36 -33 -69 -72 -69s-71 33 -71 69zM492 801c0 37 33 69 72 69s71 -32 71 -69c0 -36 -32 -69 -71 -69s-72 33 -72 69zM729 700l-289 -372v-328h-142v328l-289 372h176l184 -237l184 237h176z" />
    <glyph glyph-name="Acircumflex" unicode="&#xc2;" horiz-adv-x="703" 
d="M356 804l-151 -59l-26 86l177 99l177 -99l-26 -86zM17 0l274 700h129l274 -700h-152l-78 199h-217l-78 -199h-152zM413 331l-57 146l-57 -146h114z" />
    <glyph glyph-name="Ecircumflex" unicode="&#xca;" 
d="M315 804l-151 -59l-26 86l177 99l177 -99l-26 -86zM70 700h484v-132h-341v-149h275v-132h-275v-155h342v-132h-485v700z" />
    <glyph glyph-name="Aacute" unicode="&#xc1;" horiz-adv-x="703" 
d="M479 810l-205 -80l-26 85l197 109zM17 0l274 700h129l274 -700h-152l-78 199h-217l-78 -199h-152zM413 331l-57 146l-57 -146h114z" />
    <glyph glyph-name="Edieresis" unicode="&#xcb;" 
d="M68 801c0 37 32 69 71 69s72 -32 72 -69c0 -36 -33 -69 -72 -69s-71 33 -71 69zM438 801c0 37 33 69 72 69s71 -32 71 -69c0 -36 -32 -69 -71 -69s-72 33 -72 69zM70 700h484v-132h-341v-149h275v-132h-275v-155h342v-132h-485v700z" />
    <glyph glyph-name="Egrave" unicode="&#xc8;" 
d="M435 815l-26 -85l-205 80l34 114zM70 700h484v-132h-341v-149h275v-132h-275v-155h342v-132h-485v700z" />
    <glyph glyph-name="Iacute" unicode="&#xcd;" horiz-adv-x="301" 
d="M273 810l-205 -80l-26 85l198 109zM79 700h143v-700h-143v700z" />
    <glyph glyph-name="Icircumflex" unicode="&#xce;" horiz-adv-x="301" 
d="M150 804l-151 -59l-26 86l177 99l177 -99l-26 -86zM79 700h143v-700h-143v700z" />
    <glyph glyph-name="Idieresis" unicode="&#xcf;" horiz-adv-x="301" 
d="M-97 801c0 37 33 69 72 69s71 -32 71 -69c0 -36 -32 -69 -71 -69s-72 33 -72 69zM274 801c0 37 32 69 71 69s72 -32 72 -69c0 -36 -33 -69 -72 -69s-71 33 -71 69zM79 700h143v-700h-143v700z" />
    <glyph glyph-name="Igrave" unicode="&#xcc;" horiz-adv-x="301" 
d="M271 815l-26 -85l-205 80l33 114zM79 700h143v-700h-143v700z" />
    <glyph glyph-name="Oacute" unicode="&#xd3;" horiz-adv-x="798" 
d="M522 812l-205 -80l-26 85l197 109zM399 702c196 0 354 -157 354 -351c0 -221 -184 -351 -354 -351c-196 0 -354 158 -354 351c0 191 154 351 354 351zM399 570c-116 0 -211 -98 -211 -219c0 -122 96 -219 211 -219c102 0 211 82 211 219c0 123 -97 219 -211 219z" />
    <glyph glyph-name="Ocircumflex" unicode="&#xd4;" horiz-adv-x="798" 
d="M399 807l-151 -60l-26 86l177 99l177 -99l-26 -86zM399 702c196 0 354 -157 354 -351c0 -221 -184 -351 -354 -351c-196 0 -354 158 -354 351c0 191 154 351 354 351zM399 570c-116 0 -211 -98 -211 -219c0 -122 96 -219 211 -219c102 0 211 82 211 219
c0 123 -97 219 -211 219z" />
    <glyph glyph-name="Ograve" unicode="&#xd2;" horiz-adv-x="798" 
d="M519 817l-26 -85l-205 80l34 114zM399 702c196 0 354 -157 354 -351c0 -221 -184 -351 -354 -351c-196 0 -354 158 -354 351c0 191 154 351 354 351zM399 570c-116 0 -211 -98 -211 -219c0 -122 96 -219 211 -219c102 0 211 82 211 219c0 123 -97 219 -211 219z" />
    <glyph glyph-name="Uacute" unicode="&#xda;" horiz-adv-x="671" 
d="M464 810l-205 -80l-26 85l197 109zM210 699v-425c0 -25 5 -145 126 -151h14c105 5 122 96 126 137v439h143v-420s10 -278 -266 -288h-20c-277 10 -266 288 -266 287v421h143z" />
    <glyph glyph-name="Ucircumflex" unicode="&#xdb;" horiz-adv-x="671" 
d="M341 804l-151 -59l-26 86l177 99l177 -99l-26 -86zM210 699v-425c0 -25 5 -145 126 -151h14c105 5 122 96 126 137v439h143v-420s10 -278 -266 -288h-20c-277 10 -266 288 -266 287v421h143z" />
    <glyph glyph-name="Ugrave" unicode="&#xd9;" horiz-adv-x="671" 
d="M462 815l-27 -85l-205 80l34 114zM210 699v-425c0 -25 5 -145 126 -151h14c105 5 122 96 126 137v439h143v-420s10 -278 -266 -288h-20c-277 10 -266 288 -266 287v421h143z" />
    <glyph glyph-name="AE" unicode="&#xc6;" horiz-adv-x="1102" 
d="M558 200h-211l-155 -199h-179l558 699h472v-132h-342v-149h275v-132h-275v-155h342v-132h-485v200zM558 332v141l-108 -141h108z" />
    <glyph glyph-name="Eth" unicode="&#xd0;" horiz-adv-x="721" 
d="M159 700h163c249 0 358 -152 358 -350c0 -197 -116 -350 -353 -350h-168v260h-98v130h98v310zM302 132h25c146 0 210 81 210 218c0 140 -59 218 -215 218h-20v-178h123v-130h-123v-128z" />
    <glyph glyph-name="Oslash" unicode="&#xd8;" horiz-adv-x="798" 
d="M568 750l-23 -79c123 -55 208 -178 208 -320c0 -221 -184 -351 -354 -351c-19 0 -37 2 -55 4l-24 -82l-112 34l25 85c-112 59 -188 176 -188 310c0 191 154 351 354 351c11 0 22 0 32 -1l26 85zM274 175l118 395c-113 -4 -204 -100 -204 -219c0 -73 34 -136 86 -176z
M383 133l16 -1c102 0 211 82 211 219c0 81 -43 151 -105 189z" />
    <glyph glyph-name="OE" unicode="&#x152;" horiz-adv-x="1045" 
d="M515 0v24c-41 -16 -85 -24 -128 -24c-194 0 -351 157 -351 351c0 191 154 351 351 351c45 0 88 -8 128 -23v21h484v-132h-341v-149h275v-132h-275v-155h342v-132h-485zM515 200v301c-36 35 -86 57 -139 57c-112 0 -202 -94 -202 -207c0 -115 92 -206 202 -206
c49 0 100 19 139 55z" />
    <glyph glyph-name="Thorn" unicode="&#xde;" 
d="M201 608h127c62 0 130 -31 167 -68c40 -40 69 -104 69 -163c0 -126 -105 -231 -236 -231h-127v-146h-143v694h143v-86zM201 279h127c51 0 93 42 93 98c0 29 -11 53 -27 70c-20 19 -41 28 -66 28h-127v-196z" />
    <glyph glyph-name="ae" unicode="&#xe6;" horiz-adv-x="890" 
d="M837 219h-329c0 -72 50 -107 119 -107c58 0 98 35 112 79l103 -84c-39 -67 -110 -118 -215 -118c-102 0 -173 47 -214 112c-23 -31 -51 -57 -81 -75c-31 -18 -66 -31 -129 -31c-122 0 -176 87 -176 158c0 140 120 174 239 164c19 -1 34 -3 48 -6v7c0 42 -23 71 -62 71
c-45 0 -74 -25 -103 -66l-93 83c37 52 99 102 196 102c73 0 138 -34 173 -91c42 56 109 96 201 96c73 0 131 -29 169 -76c39 -47 59 -108 42 -218zM521 327h192c3 32 -36 75 -87 75c-56 0 -94 -33 -105 -75zM207 121c64 0 107 33 107 91c-14 2 -42 4 -61 4
c-62 0 -99 -12 -99 -55c0 -20 16 -40 53 -40z" />
    <glyph glyph-name="eth" unicode="&#xf0;" 
d="M413 728l-64 -73c111 -91 169 -243 164 -394v-13c0 -64 -23 -128 -59 -172c-37 -45 -99 -79 -160 -79c-124 0 -220 115 -220 251c0 66 26 133 65 177c36 42 96 73 155 73h10c-13 20 -29 38 -46 53l-42 -49l-81 70l26 30c-28 6 -58 7 -90 2v133c69 7 131 -4 185 -26l75 87
zM371 246v3c-1 70 -42 117 -77 117c-17 0 -29 -6 -48 -28c-16 -19 -29 -52 -29 -90c0 -71 41 -118 77 -118c17 0 30 6 49 30c16 20 27 49 28 86z" />
    <glyph glyph-name="dotlessi" unicode="&#x131;" horiz-adv-x="273" 
d="M64 0v506h137v-506h-137z" />
    <glyph glyph-name="oslash" unicode="&#xf8;" horiz-adv-x="591" 
d="M476 623l-48 -149c76 -45 127 -129 127 -223c0 -141 -115 -259 -260 -259c-8 0 -15 0 -23 1l-39 -119l-108 31l39 122c-77 45 -129 129 -129 224c0 143 117 259 260 259c8 0 17 -1 25 -2l48 149zM207 159l72 222c-59 -8 -107 -62 -107 -130c0 -36 14 -68 35 -92zM385 341
l-72 -220c58 10 105 64 105 130c0 35 -13 66 -33 90z" />
    <glyph glyph-name="oe" unicode="&#x153;" horiz-adv-x="1003" 
d="M949 219h-329c0 -72 49 -107 118 -107c59 0 99 35 112 79l104 -84c-40 -67 -111 -118 -216 -118c-109 0 -182 54 -222 126c-45 -73 -127 -123 -221 -123c-145 0 -260 117 -260 259c0 143 117 259 260 259c94 0 176 -50 222 -123c39 72 112 126 220 126
c74 0 132 -30 170 -76c38 -47 58 -108 42 -218zM632 327h193c3 32 -36 75 -88 75c-56 0 -93 -33 -105 -75zM295 120c66 0 123 58 123 131c0 74 -57 131 -123 131c-65 0 -123 -57 -123 -131s57 -131 123 -131z" />
    <glyph glyph-name="thorn" unicode="&#xfe;" horiz-adv-x="580" 
d="M199 724v-227c25 11 53 16 83 16c152 0 263 -124 263 -267s-111 -265 -263 -265c-31 0 -59 5 -83 13v-241h-143v971h143zM199 328v-175c6 -9 42 -35 83 -35c68 0 120 56 120 128c0 73 -52 130 -120 130c-34 0 -63 -18 -83 -48z" />
    <glyph glyph-name="germandbls" unicode="&#xdf;" 
d="M49 1v494c0 82 13 231 225 231c199 0 240 -148 240 -212c0 -30 -8 -67 -26 -102c65 -38 108 -109 108 -189c0 -122 -100 -222 -224 -222c-57 0 -119 26 -146 57l104 93c16 -9 24 -12 42 -12c45 0 81 37 81 84c0 50 -26 83 -90 83h-66v138h14c37 1 60 36 60 70
c0 37 -19 74 -97 74s-82 -51 -82 -93v-494h-143z" />
    <glyph glyph-name="fi" unicode="&#xfb01;" horiz-adv-x="613" 
d="M79 507v35c0 60 24 169 152 169c28 0 83 -7 142 -53l-67 -107c-13 20 -30 40 -58 40c-16 0 -32 -12 -32 -49v-35h312v-506h-143v379h-169v-380h-137v380h-81v127h81zM477 708c43 0 76 -34 76 -74c1 -42 -32 -75 -76 -75s-77 34 -77 75c0 40 33 74 77 74z" />
    <glyph glyph-name="fl" unicode="&#xfb02;" horiz-adv-x="641" 
d="M233 380v-380h-137v380h-81v127h81v35c0 60 24 169 152 169c28 0 83 -7 142 -53l-67 -107c-13 20 -30 40 -58 40c-16 0 -32 -12 -32 -49v-35h122v-127h-122zM577 0h-137v700h137v-700z" />
    <glyph glyph-name="Delta" unicode="&#x394;" 
d="M322 762l314 -758h-629zM322 393l-107 -257h214z" />
    <glyph glyph-name="Omega" unicode="&#x3a9;" horiz-adv-x="835" 
d="M522 -1v132c51 32 101 107 101 192c0 109 -96 214 -205 214s-206 -105 -206 -214c0 -83 50 -159 101 -192v-132h-282v132h105c-41 56 -67 122 -67 192c0 177 154 346 349 346c194 0 348 -169 348 -346c0 -69 -26 -136 -66 -192h104v-132h-282z" />
    <glyph glyph-name="mu" unicode="&#x3bc;" 
d="M493 474v-321c0 -32 11 -64 69 -31v-143c-68 -10 -114 5 -146 30c-31 -22 -71 -36 -121 -36c-27 0 -52 4 -73 10v-220h-142v711h142v-227c0 -98 0 -141 73 -141c39 0 56 24 55 69v299h143z" />
    <glyph glyph-name="pi" unicode="&#x3c0;" 
d="M493 352v-187c0 -32 12 -64 69 -31v-143c-187 -27 -212 132 -212 174v187h-119v-364h-143v364h-82v132h588v-132h-101z" />
    <glyph glyph-name="ordfeminine" unicode="&#xaa;" horiz-adv-x="362" 
d="M105 659l-60 52c24 33 63 65 125 65c69 0 126 -47 126 -121v-202h-87v18c-13 -13 -42 -21 -70 -21c-78 0 -112 55 -112 101c0 89 76 110 152 104c12 -1 22 -2 30 -4v4c0 27 -15 46 -39 46c-29 0 -47 -16 -65 -42zM209 588c-9 2 -26 3 -39 3c-39 0 -62 -8 -62 -35
c0 -13 10 -26 34 -26c40 0 67 21 67 58z" />
    <glyph glyph-name="ordmasculine" unicode="&#xba;" horiz-adv-x="402" 
d="M365 610c0 -89 -73 -164 -165 -164c-91 0 -165 74 -165 164c0 91 75 164 165 164c92 0 165 -74 165 -164zM278 610c0 47 -36 83 -78 83c-41 0 -77 -36 -77 -83s36 -83 77 -83c42 0 78 37 78 83z" />
    <glyph glyph-name="zero" unicode="0" horiz-adv-x="609" 
d="M305 -5c-145 0 -259 125 -259 357c0 233 115 352 259 352s258 -119 258 -352c0 -232 -114 -357 -258 -357zM305 126c55 0 115 65 115 226c0 160 -58 220 -115 220c-58 0 -116 -60 -116 -220c0 -161 60 -226 116 -226z" />
    <glyph glyph-name="one" unicode="1" horiz-adv-x="480" 
d="M24 0v133h143v403l-136 -70v162l174 72h104v-567h146v-133h-431z" />
    <glyph glyph-name="two" unicode="2" horiz-adv-x="525" 
d="M20 0v138c87 90 241 221 298 300c46 64 5 131 -67 131c-49 0 -85 -41 -86 -99l-140 45c15 106 110 191 226 191c181 0 299 -186 183 -348c-43 -60 -134 -146 -214 -220h275v-138h-475z" />
    <glyph glyph-name="three" unicode="3" horiz-adv-x="502" 
d="M177 494l-125 22c6 104 71 188 186 188c111 0 199 -89 199 -194c0 -44 -9 -86 -57 -119c70 -42 93 -102 93 -168c0 -121 -94 -226 -235 -226c-110 0 -193 78 -208 148l130 56c7 -41 31 -71 78 -71c57 0 93 38 93 93c0 54 -36 100 -120 100h-11v116h14c61 0 80 34 80 71
c0 36 -26 61 -56 61c-57 0 -59 -60 -61 -77z" />
    <glyph glyph-name="four" unicode="4" horiz-adv-x="625" 
d="M493 0h-143v135h-307v116l313 449h137v-424h70v-141h-70v-135zM220 276h130v195z" />
    <glyph glyph-name="five" unicode="5" horiz-adv-x="538" 
d="M240 568l-33 -101c24 4 48 5 74 1c131 -21 223 -144 202 -273c-21 -128 -135 -218 -279 -195c-98 17 -169 81 -191 148l122 66c23 -53 41 -75 92 -83c61 -10 105 24 115 85c9 57 -33 113 -83 121c-41 6 -73 4 -152 -46l-69 116l90 293h336v-132h-224z" />
    <glyph glyph-name="six" unicode="6" horiz-adv-x="505" 
d="M437 700l-151 -261c28 -3 55 -12 81 -27c108 -62 144 -197 83 -304c-54 -94 -170 -134 -270 -100c-18 7 -35 15 -50 25c-6 5 -13 9 -19 14c-80 66 -104 178 -57 273l5 9l2 3l213 368h163zM214 145l7 -4c9 -4 19 -6 31 -7c29 -1 58 14 74 43c23 40 9 93 -30 116
c-41 23 -89 9 -113 -32c-23 -41 -8 -94 31 -116z" />
    <glyph glyph-name="seven" unicode="7" 
d="M275 442l71 121h-270v137h515l-413 -700h-164z" />
    <glyph glyph-name="eight" unicode="8" horiz-adv-x="516" 
d="M419 369c78 -68 98 -175 41 -266c-63 -101 -207 -136 -317 -79c-116 61 -154 191 -88 298c11 17 26 33 43 47c-56 63 -67 154 -22 232c56 97 187 133 286 76c102 -59 135 -179 78 -279c-6 -10 -13 -20 -21 -29zM200 535c-19 -33 -7 -79 25 -98c12 -6 17 -7 35 -9
c25 2 43 13 56 36c19 34 7 80 -25 98c-33 19 -70 9 -91 -27zM339 173c24 38 10 88 -33 110c-16 9 -26 11 -48 13c-38 -3 -64 -16 -82 -44c-23 -38 -9 -89 33 -111c47 -24 104 -10 130 32z" />
    <glyph glyph-name="nine" unicode="9" horiz-adv-x="471" 
d="M433 388l-3 -6c-1 -2 -3 -4 -4 -7l-218 -375h-163l160 277c-25 4 -49 13 -72 26c-105 60 -139 189 -80 293c51 91 162 130 259 97c130 -47 181 -188 123 -302zM279 556l-2 1c-11 6 -23 9 -37 9c-25 0 -49 -14 -63 -38c-21 -37 -8 -86 27 -106c33 -19 73 -11 96 19l10 19
c15 35 1 76 -31 96z" />
    <glyph glyph-name="fraction" unicode="&#x2044;" horiz-adv-x="673" 
d="M673 808l-555 -831l-118 75l555 831z" />
    <glyph glyph-name="onehalf" unicode="&#xbd;" horiz-adv-x="847" 
d="M278 918v-431h-143v252l-82 -61v173l117 67h108zM185 -23l-118 75l555 831l118 -75zM494 -16v95c28 39 125 145 155 187c15 21 5 33 -13 33c-17 0 -31 -18 -31 -42l-113 31c0 71 65 134 146 134c116 0 192 -118 119 -219c-15 -20 -59 -65 -84 -98h124v-121h-303z" />
    <glyph glyph-name="onequarter" unicode="&#xbc;" horiz-adv-x="789" 
d="M278 918v-431h-143v252l-82 -61v173l117 67h108zM189 -23l-118 75l555 831l118 -75zM563 -17v77h-149v97l166 257h108v-257h43v-97h-43v-77h-125zM568 156v77l-49 -77h49z" />
    <glyph glyph-name="threequarters" unicode="&#xbe;" horiz-adv-x="789" 
d="M118 769l-96 26c15 72 69 121 139 121c78 0 140 -61 140 -134c0 -32 -19 -54 -30 -60c26 -16 49 -47 49 -93c0 -80 -64 -152 -159 -152c-82 0 -146 59 -152 111l99 46c13 -32 38 -40 57 -40c31 0 41 16 41 35c0 23 -24 34 -47 38c-12 2 -25 3 -38 3v78l34 4
c14 4 32 8 32 29c0 8 -3 27 -30 27c-21 0 -35 -11 -39 -39zM172 -23l-118 75l555 831l118 -75zM563 -17v77h-149v97l166 257h108v-257h43v-97h-43v-77h-125zM568 156v77l-49 -77h49z" />
    <glyph glyph-name="onesuperior" unicode="&#xb9;" horiz-adv-x="359" 
d="M278 918v-431h-143v252l-82 -61v173l117 67h108z" />
    <glyph glyph-name="twosuperior" unicode="&#xb2;" horiz-adv-x="360" 
d="M37 484v95c28 39 125 145 155 188c15 20 4 33 -14 33c-17 0 -30 -19 -30 -43l-113 31c0 71 65 135 146 135c116 0 191 -119 118 -220c-14 -20 -58 -65 -84 -98h125v-121h-303z" />
    <glyph glyph-name="threesuperior" unicode="&#xb3;" horiz-adv-x="330" 
d="M118 769l-96 26c15 72 69 121 139 121c78 0 140 -61 140 -134c0 -32 -19 -54 -30 -60c26 -16 49 -47 49 -93c0 -80 -64 -152 -159 -152c-82 0 -146 59 -152 111l99 46c13 -32 38 -40 57 -40c31 0 41 16 41 35c0 23 -24 34 -47 38c-12 2 -25 3 -38 3v78l34 4
c14 4 32 8 32 29c0 8 -3 27 -30 27c-21 0 -35 -11 -39 -39z" />
    <glyph glyph-name="foursuperior" unicode="&#x2074;" horiz-adv-x="412" 
d="M214 484v77h-149v97l166 257h108v-257h43v-97h-43v-77h-125zM219 657v77l-48 -77h48z" />
    <glyph glyph-name="asterisk" unicode="*" 
d="M241 478l-67 -96l-117 76l73 104l-119 38l43 126l115 -36v123h143v-124l115 37l43 -126l-118 -38l74 -102l-116 -77z" />
    <glyph glyph-name="backslash" unicode="\" 
d="M152 715l287 -783l-134 -45l-287 783z" />
    <glyph glyph-name="bullet" unicode="&#x2022;" 
d="M293 163c-72 0 -130 58 -130 130s58 131 130 131s131 -59 131 -131s-59 -130 -131 -130z" />
    <glyph glyph-name="colon" unicode=":" 
d="M187 360c-54 0 -97 43 -97 94s43 94 97 94c53 0 96 -43 96 -94s-43 -94 -96 -94zM187 -31c-54 0 -97 42 -97 94c0 51 43 93 97 93c53 0 96 -42 96 -93c0 -52 -43 -94 -96 -94z" />
    <glyph glyph-name="ellipsis" unicode="&#x2026;" horiz-adv-x="933" 
d="M187 -31c-54 0 -97 42 -97 94c0 51 43 93 97 93c53 0 96 -42 96 -93c0 -52 -43 -94 -96 -94zM473 -31c-54 0 -96 42 -96 94c0 51 42 93 96 93s96 -42 96 -93c0 -52 -42 -94 -96 -94zM747 -31c-54 0 -96 42 -96 94c0 51 42 93 96 93s96 -42 96 -93c0 -52 -42 -94 -96 -94z
" />
    <glyph glyph-name="exclam" unicode="!" horiz-adv-x="403" 
d="M276 720l-19 -492h-140l-19 492h178zM187 -31c-54 0 -97 42 -97 94c0 51 43 93 97 93c53 0 96 -42 96 -93c0 -52 -43 -94 -96 -94z" />
    <glyph glyph-name="exclamdown" unicode="&#xa1;" 
d="M207 822c-54 0 -96 -43 -96 -94s42 -93 96 -93s96 42 96 93s-42 94 -96 94zM277 563h-140l-19 -493h178z" />
    <glyph glyph-name="numbersign" unicode="#" horiz-adv-x="708" 
d="M624 295v-132h-125l-44 -160h-147l44 160h-103l-44 -160h-147l43 160h-89v132h125l37 136h-90v132h126l47 175h147l-47 -175h104l50 181h147l-49 -181h87v-132h-124l-37 -136h89zM285 295h103l37 136h-104z" />
    <glyph glyph-name="periodcentered" unicode="&#xb7;" 
d="M187 209c-54 0 -97 42 -97 93c0 52 43 94 97 94c53 0 96 -42 96 -94c0 -51 -43 -93 -96 -93z" />
    <glyph glyph-name="question" unicode="?" horiz-adv-x="540" 
d="M122 219l-16 199c90 27 166 50 171 107c3 34 -18 55 -55 53c-37 -1 -55 -37 -55 -37l-119 67s39 96 166 102c121 7 215 -83 205 -196c-8 -100 -86 -156 -157 -187v-108h-140zM197 -41c-54 0 -97 42 -97 94c0 51 43 93 97 93c53 0 96 -42 96 -93c0 -52 -43 -94 -96 -94z
" />
    <glyph glyph-name="questiondown" unicode="&#xbf;" 
d="M232 767c-54 0 -97 -42 -97 -94c0 -51 43 -93 97 -93s96 42 96 93c0 52 -42 94 -96 94zM157 507l-15 -198c89 -28 165 -50 170 -108c3 -34 -18 -55 -55 -53c-36 2 -55 37 -55 37l-119 -67s39 -95 167 -102c120 -7 214 83 205 196c-9 101 -87 156 -158 187v108h-140z" />
    <glyph glyph-name="quotedbl" unicode="&#x22;" horiz-adv-x="465" 
d="M177 549h-100l-16 218h132zM400 549h-100l-16 218h131z" />
    <glyph glyph-name="semicolon" unicode=";" horiz-adv-x="664" 
d="M145 360c-54 0 -96 43 -96 94s42 94 96 94s96 -43 96 -94s-42 -94 -96 -94zM212 116v-133l-76 -148l-101 46l58 131l-8 104h127z" />
    <glyph glyph-name="slash" unicode="/" 
d="M485 702l-249 -828l-111 34l249 830z" />
    <glyph glyph-name="underscore" unicode="_" 
d="M561 -161h-539v132h539v-132z" />
    <glyph glyph-name="braceleft" unicode="{" horiz-adv-x="334" 
d="M267 -20l62 -119s-45 -19 -96 -19c-68 0 -155 33 -155 179c0 58 5 112 5 154c0 69 -28 69 -63 69v127c35 0 63 6 63 70c0 42 -5 96 -5 154c0 145 94 178 159 178c46 0 84 -15 84 -15l-38 -127c-11 3 -28 10 -42 10c-13 0 -20 -7 -20 -46c0 -44 6 -97 6 -148
c0 -49 -1 -100 -52 -139c51 -39 52 -90 52 -139c0 -51 -6 -104 -6 -148c0 -39 8 -48 19 -48c12 0 24 5 27 7z" />
    <glyph glyph-name="braceright" unicode="}" horiz-adv-x="334" 
d="M68 -20l-63 -119s45 -19 97 -19c68 0 154 33 154 179c0 58 -5 112 -5 154c0 69 29 69 63 69v127c-34 0 -63 6 -63 70c0 42 5 96 5 154c0 145 -93 178 -158 178c-46 0 -85 -15 -85 -15l39 -127c10 3 28 10 42 10c13 0 20 -7 20 -46c0 -44 -6 -97 -6 -148
c0 -49 1 -100 51 -139c-50 -39 -51 -90 -51 -139c0 -51 6 -104 6 -148c0 -39 -9 -48 -19 -48c-13 0 -24 5 -27 7z" />
    <glyph glyph-name="bracketleft" unicode="[" horiz-adv-x="392" 
d="M193 2h129v-132h-272v900h272v-132h-129v-636z" />
    <glyph glyph-name="bracketright" unicode="]" horiz-adv-x="392" 
d="M70 2v-132h272v900h-272v-132h130v-636h-130z" />
    <glyph glyph-name="parenleft" unicode="(" horiz-adv-x="324" 
d="M294 -32l-124 -66s-120 204 -120 422c0 219 121 409 121 409l121 -70s-99 -156 -99 -339c0 -185 101 -356 101 -356z" />
    <glyph glyph-name="parenright" unicode=")" horiz-adv-x="324" 
d="M50 -32l124 -66s120 204 120 422c0 219 -122 409 -122 409l-121 -70s100 -156 100 -339c0 -185 -101 -356 -101 -356z" />
    <glyph glyph-name="emdash" unicode="&#x2014;" horiz-adv-x="906" 
d="M30 381h845v-132h-845v132z" />
    <glyph glyph-name="endash" unicode="&#x2013;" 
d="M94 381h428v-132h-428v132z" />
    <glyph glyph-name="softhyphen" unicode="&#xad;" 
d="M432 350v-130h-364v130h364z" />
    <glyph glyph-name="guillemotleft" unicode="&#xab;" horiz-adv-x="761" 
d="M269 510l104 -88l-136 -149l136 -149l-104 -87l-239 236zM532 510l104 -88l-136 -149l136 -149l-104 -87l-239 236z" />
    <glyph glyph-name="guillemotright" unicode="&#xbb;" horiz-adv-x="761" 
d="M125 422l136 -149l-136 -149l105 -87l238 236l-238 237zM388 422l136 -149l-136 -149l104 -87l239 236l-239 237z" />
    <glyph glyph-name="guilsinglleft" unicode="&#x2039;" 
d="M381 510l105 -88l-136 -149l136 -149l-105 -87l-239 236z" />
    <glyph glyph-name="guilsinglright" unicode="&#x203a;" 
d="M142 422l136 -149l-136 -149l105 -87l239 236l-239 237z" />
    <glyph glyph-name="quotedblbase" unicode="&#x201e;" horiz-adv-x="313" 
d="M213 116v-133l-75 -148l-102 46l58 131l-8 104h127z" />
    <glyph glyph-name="quotedblleft" unicode="&#x201c;" horiz-adv-x="478" 
d="M104 517l-50 121v121h117l-9 -107l26 -92zM310 517l-50 121v121h117l-9 -107l26 -92z" />
    <glyph glyph-name="quotedblright" unicode="&#x201d;" horiz-adv-x="478" 
d="M125 517l50 121v121h-117l9 -107l-26 -92zM330 517l50 121v121h-117l9 -107l-26 -92z" />
    <glyph glyph-name="quoteleft" unicode="&#x2018;" horiz-adv-x="298" 
d="M109 517l-49 121v121h117l-9 -107l25 -92z" />
    <glyph glyph-name="quoteright" unicode="&#x2019;" horiz-adv-x="272" 
d="M175 638v121h-117l9 -107l-26 -92l84 -43z" />
    <glyph glyph-name="quotesinglbase" unicode="&#x201a;" horiz-adv-x="333" 
d="M213 116v-133l-75 -148l-102 46l58 131l-8 104h127z" />
    <glyph glyph-name="florin" unicode="&#x192;" 
d="M532 721l-44 -126c-39 33 -66 39 -90 39c-15 0 -40 -5 -50 -46l-12 -42h144l-38 -132h-141l-137 -510h-145l136 510h-109l38 132h107l23 86c27 102 107 134 174 134c58 0 120 -30 144 -45z" />
    <glyph glyph-name="cent" unicode="&#xa2;" horiz-adv-x="579" 
d="M418 286l115 -76c-20 -55 -88 -109 -162 -131v-88h-143v90c-108 34 -184 136 -184 254c0 110 69 219 184 254v87h143v-86c70 -20 133 -69 154 -118l-110 -81c-29 51 -64 77 -110 77c-67 0 -118 -62 -118 -133c0 -76 55 -134 118 -134c48 0 85 29 113 85z" />
    <glyph glyph-name="currency" unicode="&#xa4;" horiz-adv-x="743" 
d="M687 575l-109 -109c18 -33 28 -70 28 -110c0 -39 -10 -76 -27 -108l108 -108l-102 -93l-104 104c-33 -17 -70 -26 -109 -26s-76 9 -108 26l-105 -104l-101 93l107 108c-17 32 -27 69 -27 108c0 40 10 78 28 110l-108 109l101 93l106 -106c32 17 68 26 107 26
s76 -10 108 -26l105 106zM281 356c0 -56 43 -99 91 -99c49 0 91 43 91 99c0 57 -42 100 -91 100c-48 0 -91 -43 -91 -100z" />
    <glyph glyph-name="dollar" unicode="$" 
d="M506 625l-112 -82s-40 52 -105 56c-53 3 -90 -33 -86 -83c3 -42 51 -65 113 -88l23 -8c49 -19 217 -63 217 -229c0 -123 -87 -187 -181 -209v-77h-143v74c-101 21 -174 90 -197 129l123 68c18 -31 65 -72 136 -72c68 0 119 28 119 87c0 66 -72 85 -124 104l-23 9
c-72 27 -195 79 -205 201c-10 109 64 199 171 221v73h143v-84c85 -29 131 -90 131 -90z" />
    <glyph glyph-name="sterling" unicode="&#xa3;" 
d="M445 164l131 -19c0 -33 -24 -168 -183 -168c-132 0 -170 80 -233 80c-52 0 -51 -61 -51 -61l-137 38s29 127 161 142c5 25 4 59 -16 101h-110v132h66c-32 160 17 330 243 322c74 -3 147 -50 175 -102l-93 -83c-12 13 -45 57 -89 57c-100 0 -123 -90 -92 -194h219v-132
h-169c14 -51 11 -96 4 -130c43 -21 81 -44 122 -44c55 0 55 36 52 61z" />
    <glyph glyph-name="yen" unicode="&#xa5;" 
d="M544 272h-154v-51h154v-95h-154v-125h-143v125h-167v95h167v51h-167v95h122l-216 277l113 81l213 -274l213 274l113 -81l-216 -277h122v-95z" />
    <glyph glyph-name="approxequal" unicode="&#x2248;" 
d="M432 509h95c23 -127 -68 -164 -135 -164c-86 0 -101 62 -146 62c-24 0 -33 -26 -25 -54h-103c-22 93 38 172 130 172c74 0 95 -61 147 -61c29 0 42 19 37 45zM432 316h95c23 -127 -68 -164 -135 -164c-86 0 -101 62 -146 62c-24 0 -33 -26 -25 -54h-103
c-22 93 38 171 130 171c74 0 95 -60 147 -60c29 0 42 19 37 45z" />
    <glyph glyph-name="asciitilde" unicode="~" 
d="M189 311l-122 -40c-15 15 -23 50 -23 69c0 95 63 153 148 153c131 0 140 -136 204 -136c8 0 21 4 21 21c0 12 -6 30 -29 52l115 59c29 -23 48 -73 48 -113c0 -100 -69 -146 -148 -146c-134 0 -154 137 -205 137c-12 0 -21 -8 -21 -26c0 -10 6 -21 12 -30z" />
    <glyph glyph-name="divide" unicode="&#xf7;" 
d="M300 427c-54 0 -96 42 -96 93c0 52 42 94 96 94s96 -42 96 -94c0 -51 -42 -93 -96 -93zM587 241h-562v132h562v-132zM300 -31c-54 0 -96 42 -96 94c0 51 42 93 96 93s96 -42 96 -93c0 -52 -42 -94 -96 -94z" />
    <glyph glyph-name="equal" unicode="=" 
d="M71 472h466v-132h-466v132zM71 240h466v-132h-466v132z" />
    <glyph glyph-name="greater" unicode="&#x3e;" horiz-adv-x="651" 
d="M363 310l-315 150l60 132l414 -213v-139l-413 -212l-60 132z" />
    <glyph glyph-name="greaterequal" unicode="&#x2265;" horiz-adv-x="631" 
d="M78 522l54 118l370 -190v-124l-369 -190l-54 118l281 134zM54 108h539v-118h-539v118z" />
    <glyph glyph-name="infinity" unicode="&#x221e;" horiz-adv-x="732" 
d="M557 443c110 0 168 -91 168 -201c0 -63 -28 -201 -168 -201c-75 0 -142 53 -188 99c-47 -48 -112 -99 -187 -99c-140 0 -167 138 -167 201s27 201 167 201c76 0 140 -51 187 -99c47 47 112 99 188 99zM182 173c26 0 60 32 94 69c-35 38 -68 69 -94 69
c-14 0 -25 -31 -25 -69c0 -39 11 -69 25 -69zM557 173c14 0 25 30 25 69c0 50 -14 69 -25 69c-27 0 -60 -32 -95 -69c31 -34 68 -69 95 -69z" />
    <glyph glyph-name="integral" unicode="&#x222b;" 
d="M561 739l-61 -119c-21 16 -36 21 -48 21s-27 -9 -33 -42c-19 -111 -108 -590 -117 -644c-12 -63 -77 -99 -146 -99c-45 0 -106 21 -143 61l77 108c41 -26 47 -30 62 -30c13 0 17 14 18 20c12 60 89 494 109 607c21 117 98 149 161 149c45 0 97 -18 121 -32z" />
    <glyph glyph-name="less" unicode="&#x3c;" horiz-adv-x="651" 
d="M603 460l-60 132l-415 -213v-139l414 -212l60 132l-314 150z" />
    <glyph glyph-name="lessequal" unicode="&#x2264;" 
d="M507 640l-370 -190v-124l369 -190l54 118l-281 134l282 134zM46 108v-118h539v118h-539z" />
    <glyph glyph-name="logicalnot" unicode="&#xac;" horiz-adv-x="744" 
d="M704 135h-143v198h-518v132h661v-330z" />
    <glyph glyph-name="minus" unicode="&#x2212;" 
d="M587 241h-562v132h562v-132z" />
    <glyph glyph-name="multiply" unicode="&#xd7;" horiz-adv-x="651" 
d="M113 575l527 -528l-101 -93l-528 528z" />
    <glyph glyph-name="notequal" unicode="&#x2260;" 
d="M537 240v-132h-230l-71 -234l-111 34l60 200h-114v132h154l30 100h-184v132h223l80 266l111 -36l-69 -230h121v-132h-161l-30 -100h191z" />
    <glyph glyph-name="partialdiff" unicode="&#x2202;" 
d="M47 692v133c330 26 501 -249 501 -553c0 -73 -28 -150 -71 -201c-42 -52 -120 -94 -194 -94c-150 0 -264 137 -264 295c0 76 31 156 76 208c42 48 118 87 188 87c15 0 29 -1 43 -4c-63 92 -159 144 -279 129zM283 109c32 0 58 14 84 45c24 30 38 69 38 118
c0 95 -58 163 -122 163c-30 0 -55 -13 -80 -42c-25 -28 -42 -71 -42 -121c0 -95 59 -163 122 -163z" />
    <glyph glyph-name="percent" unicode="%" horiz-adv-x="805" 
d="M192 318c-85 0 -151 74 -151 198s67 194 151 194c85 0 152 -70 152 -194s-67 -198 -152 -198zM717 710l-474 -710h-168l475 710h167zM192 414c10 0 22 8 22 102c0 93 -9 99 -22 99c-12 0 -21 -6 -21 -99c0 -94 12 -102 21 -102zM598 -3c-85 0 -151 73 -151 197
s67 195 151 195s152 -71 152 -195s-67 -197 -152 -197zM598 92c10 0 22 8 22 102c0 93 -9 99 -22 99s-21 -6 -21 -99c0 -94 11 -102 21 -102z" />
    <glyph glyph-name="perthousand" unicode="&#x2030;" horiz-adv-x="1144" 
d="M182 318c-85 0 -151 74 -151 198s67 194 151 194c85 0 152 -70 152 -194s-67 -198 -152 -198zM707 710l-474 -710h-168l475 710h167zM182 414c10 0 22 8 22 102c0 93 -9 99 -22 99c-12 0 -21 -6 -21 -99c0 -94 12 -102 21 -102zM588 -3c-85 0 -151 73 -151 197
s67 195 151 195s152 -71 152 -195s-67 -197 -152 -197zM908 -3c-85 0 -151 73 -151 197s67 195 151 195c85 0 152 -71 152 -195s-67 -197 -152 -197zM588 92c10 0 22 8 22 102c0 93 -9 99 -22 99s-21 -6 -21 -99c0 -94 11 -102 21 -102zM908 92c10 0 22 8 22 102
c0 93 -9 99 -22 99c-12 0 -21 -6 -21 -99c0 -94 11 -102 21 -102z" />
    <glyph glyph-name="plus" unicode="+" 
d="M362 -9h-143v213h-210v133h210v213h143v-213h210v-133h-210v-213z" />
    <glyph glyph-name="plusminus" unicode="&#xb1;" 
d="M373 289v-153h-143v153h-210v133h210v152h143v-152h210v-133h-210zM583 -37h-563v132h563v-132z" />
    <glyph glyph-name="product" unicode="&#x220f;" horiz-adv-x="834" 
d="M704 1h-143v592h-296v-592h-143v592h-73v132h728v-132h-73v-592z" />
    <glyph glyph-name="radical" unicode="&#x221a;" horiz-adv-x="651" 
d="M59 384v132h201l89 -256l140 478h149l-275 -935h-3l-204 581h-97z" />
    <glyph glyph-name="summation" unicode="&#x2211;" horiz-adv-x="854" 
d="M575 371v-47l-188 -221h369v-132h-662l318 378l-318 375h662v-132h-369z" />
    <glyph glyph-name="ampersand" unicode="&#x26;" horiz-adv-x="740" 
d="M543 0l-63 64c-50 -49 -121 -83 -222 -83c-164 0 -272 130 -238 281c16 74 67 124 138 162c-17 39 -25 84 -14 142c18 104 106 157 191 157c90 0 198 -77 169 -204c-15 -72 -71 -115 -136 -143l68 -70c0 21 -3 42 -9 61h155c6 -42 2 -114 -25 -185l179 -182h-193z
M284 543c-4 -23 0 -45 7 -64c51 19 68 40 74 68c6 25 -14 44 -30 44c-23 0 -45 -16 -51 -48zM258 113c56 0 97 19 125 49c-61 63 -123 126 -151 157c-42 -24 -65 -51 -73 -85c-15 -69 22 -121 99 -121z" />
    <glyph glyph-name="asciicircum" unicode="^" 
d="M176 366l-126 62l224 418l225 -418l-126 -62l-99 183z" />
    <glyph glyph-name="at" unicode="@" horiz-adv-x="1110" 
d="M751 -57l61 -120c-68 -38 -157 -64 -243 -64c-271 0 -489 219 -489 485c0 265 218 484 489 484c272 0 472 -209 472 -474c0 -148 -70 -273 -192 -288c-77 -10 -136 13 -169 66c-57 -47 -99 -53 -139 -53c-122 0 -176 87 -176 158c0 126 96 166 202 166c31 0 63 -5 85 -11
v11c0 42 -23 73 -62 73c-45 0 -74 -27 -103 -69l-93 84c37 52 99 102 196 102c109 0 199 -75 199 -190v-2v-142c0 -60 7 -67 42 -62c30 4 67 62 67 157c0 198 -139 342 -329 342c-191 0 -346 -156 -346 -352c0 -197 155 -353 346 -353c69 0 124 17 182 52zM541 105
c64 0 103 37 107 91c-18 5 -42 8 -62 8c-61 0 -98 -16 -98 -59c0 -20 16 -40 53 -40z" />
    <glyph glyph-name="bar" unicode="|" 
d="M256 -152v909h143v-909h-143z" />
    <glyph glyph-name="brokenbar" unicode="&#xa6;" 
d="M127 377v367h142v-367h-142zM127 -63v368h142v-368h-142z" />
    <glyph glyph-name="copyright" unicode="&#xa9;" horiz-adv-x="817" 
d="M92 157c-34 56 -55 126 -55 193c0 200 167 367 371 367c140 0 266 -80 326 -191c28 -51 46 -115 46 -176c0 -199 -168 -367 -372 -367c-133 0 -253 72 -316 174zM213 227c43 -69 115 -112 195 -112c125 0 229 103 229 235c0 45 -9 78 -28 113c-41 75 -116 122 -201 122
c-125 0 -229 -103 -229 -235c0 -49 12 -86 34 -123zM464 340l82 -54c-15 -44 -77 -88 -137 -88c-85 0 -154 74 -154 158c0 78 62 158 154 158c57 0 118 -40 132 -80l-77 -58c-14 34 -33 44 -55 44c-29 0 -53 -28 -53 -64c0 -38 25 -64 53 -64c22 0 46 14 55 48z" />
    <glyph glyph-name="dagger" unicode="&#x2020;" 
d="M348 -129h-143v542h-135v132h135v185h143v-185h136v-132h-136v-542z" />
    <glyph glyph-name="daggerdbl" unicode="&#x2021;" 
d="M484 192v-132h-136v-189h-143v189h-135v132h135v221h-135v132h135v185h143v-185h136v-132h-136v-221h136z" />
    <glyph glyph-name="degree" unicode="&#xb0;" 
d="M304 465c-101 0 -181 80 -181 176c0 95 80 175 181 175s181 -80 181 -175c0 -96 -80 -176 -181 -176zM304 579c29 0 54 25 54 62c0 36 -25 61 -54 61s-54 -25 -54 -61c0 -37 25 -62 54 -62z" />
    <glyph glyph-name="paragraph" unicode="&#xb6;" horiz-adv-x="670" 
d="M473 -171v822h-55v-822h-143v550h-39c-114 0 -206 91 -206 202c0 53 25 107 60 143c35 34 91 59 146 59h379v-954h-142zM275 651h-39c-17 0 -29 -5 -45 -21c-10 -10 -18 -27 -18 -49c0 -40 30 -70 63 -70h39v140z" />
    <glyph glyph-name="registered" unicode="&#xae;" horiz-adv-x="817" 
d="M738 519c26 -50 42 -111 42 -169c0 -199 -168 -367 -372 -367c-132 0 -251 71 -315 172v1h-1v1l-1 1v1l-1 1c0 1 0 1 -1 1c-32 55 -52 123 -52 189c0 200 167 367 371 367c143 0 271 -83 330 -198zM408 115c125 0 229 103 229 235c0 37 -6 66 -19 94
c-39 86 -118 141 -210 141c-125 0 -229 -103 -229 -235c0 -39 7 -70 22 -100c40 -83 118 -135 207 -135zM304 513h139c53 0 98 -45 98 -95c0 -31 -18 -60 -44 -78l64 -130h-99l-49 114h-17v-112h-92v301zM396 408h37c1 0 15 0 15 13s-14 13 -15 13h-37v-26z" />
    <glyph glyph-name="section" unicode="&#xa7;" 
d="M242 550l1 -2c16 -12 42 -23 78 -37c60 -23 220 -60 220 -210c0 -42 -14 -78 -36 -108c21 -27 36 -62 36 -107c0 -141 -136 -195 -242 -195c-121 0 -213 79 -238 119l121 71c15 -25 55 -58 117 -58c58 0 99 21 99 63c0 47 -62 61 -129 87c-64 26 -177 68 -187 179
c-4 48 10 91 38 126c-20 23 -35 52 -38 89c-11 118 91 208 219 202c120 -6 191 -91 192 -92l-110 -84c-4 4 -35 41 -89 44c-45 2 -73 -24 -70 -59c1 -11 7 -20 17 -28h1zM269 388l-33 13c-9 -9 -13 -23 -12 -38c3 -29 37 -43 97 -67c17 -6 43 -14 70 -25c5 7 7 17 7 30
c0 47 -62 61 -129 87z" />
    <glyph glyph-name="Euro" unicode="&#x20ac;" horiz-adv-x="747" 
d="M582 199l98 -94c-48 -63 -138 -110 -226 -110c-137 0 -251 99 -294 234h-107v87h90c-1 11 -2 22 -2 33c0 10 1 21 2 31h-90v87h107c42 137 157 237 294 237c88 0 178 -48 226 -111l-99 -94c-46 52 -80 73 -127 73c-58 0 -113 -41 -144 -105h221v-87h-245
c-1 -10 -2 -20 -2 -31s1 -22 2 -33h245v-87h-220c31 -63 86 -103 143 -103c47 0 81 21 128 73z" />
    <glyph glyph-name="trademark" unicode="&#x2122;" horiz-adv-x="902" 
d="M315 643v-302h-143v302h-87v132h318v-132h-88zM744 341v174l-37 -122h-75l-40 122v-174h-128v434h160l44 -174l44 174h160v-434h-128z" />
    <glyph glyph-name="lozenge" unicode="&#x25ca;" horiz-adv-x="696" 
d="M12 270l336 336l336 -336l-336 -336zM490 270l-142 141l-142 -141l142 -142z" />
    <glyph glyph-name="acute" unicode="&#xb4;" 
d="M368 610l-205 -80l-26 85l197 109z" />
    <glyph glyph-name="breve" unicode="&#x2d8;" 
d="M336 720h104c12 -63 -27 -154 -142 -154c-121 0 -154 97 -143 154h105c0 -38 15 -53 38 -53s38 15 38 53z" />
    <glyph glyph-name="caron" unicode="&#x2c7;" 
d="M112 719l171 -59l171 59l26 -86l-197 -99l-197 99z" />
    <glyph glyph-name="cedilla" unicode="&#xb8;" 
d="M378 -38l-99 -145l-90 61l99 144z" />
    <glyph glyph-name="circumflex" unicode="&#x2c6;" 
d="M283 604l-151 -59l-26 86l177 99l177 -99l-26 -86z" />
    <glyph glyph-name="dieresis" unicode="&#xa8;" horiz-adv-x="574" 
d="M30 621c0 36 33 69 72 69c38 0 71 -33 71 -69c0 -37 -33 -69 -71 -69c-39 0 -72 32 -72 69zM400 621c0 36 33 69 72 69s72 -33 72 -69c0 -37 -33 -69 -72 -69s-72 32 -72 69z" />
    <glyph glyph-name="dotaccent" unicode="&#x2d9;" horiz-adv-x="203" 
d="M30 630c0 36 33 69 72 69c38 0 71 -33 71 -69c0 -37 -33 -69 -71 -69c-39 0 -72 32 -72 69z" />
    <glyph glyph-name="grave" unicode="`" 
d="M368 615l-26 -85l-205 80l33 114z" />
    <glyph glyph-name="hungarumlaut" unicode="&#x2dd;" 
d="M312 764l-73 -187h-93l60 187h106zM493 764l-74 -187h-93l60 187h107z" />
    <glyph glyph-name="macron" unicode="&#xaf;" 
d="M91 607h420v-93h-420v93z" />
    <glyph glyph-name="ogonek" unicode="&#x2db;" 
d="M282 61v-105c-38 0 -53 -16 -53 -38c0 -23 15 -38 53 -38v-105c-62 -11 -154 28 -154 143c0 121 97 153 154 143z" />
    <glyph glyph-name="ring" unicode="&#x2da;" 
d="M435 613c0 -73 -60 -133 -135 -133s-135 60 -135 133s60 132 135 132s135 -59 135 -132zM347 613c0 28 -22 50 -47 50c-26 0 -47 -22 -47 -50c0 -29 21 -51 47 -51c25 0 47 22 47 51z" />
    <glyph glyph-name="tilde" unicode="&#x2dc;" 
d="M366 693h91c29 -87 -33 -137 -87 -137c-62 0 -88 48 -117 38c-14 -5 -18 -28 -13 -44l-83 24c-10 46 13 113 82 113c56 0 102 -61 128 -42c14 11 4 34 -1 48z" />
    </font>
</defs>
</svg>
